<mxfile host="Electron" modified="2023-11-07T03:23:58.800Z" agent="Mozilla/5.0 (Windows NT 10.0; Win64; x64) AppleWebKit/537.36 (KHTML, like Gecko) draw.io/21.5.1 Chrome/112.0.5615.204 Electron/24.6.0 Safari/537.36" etag="9tgoXIjbndZKGoPjymAo" version="21.5.1" type="device">
  <diagram name="Page-1" id="LbwkdRN5_66sI82C8_K1">
    <mxGraphModel dx="1084" dy="1184" grid="1" gridSize="10" guides="1" tooltips="1" connect="1" arrows="1" fold="1" page="1" pageScale="1" pageWidth="827" pageHeight="1169" math="0" shadow="0">
      <root>
        <mxCell id="0" />
        <mxCell id="1" parent="0" />
        <mxCell id="j58Qa-B2XjDs2JEi8ESv-1" value="" style="triangle;whiteSpace=wrap;html=1;rotation=-90;fillColor=#fff2cc;strokeColor=#d6b656;" parent="1" vertex="1">
          <mxGeometry x="370" y="440" width="105" height="140" as="geometry" />
        </mxCell>
        <mxCell id="j58Qa-B2XjDs2JEi8ESv-2" value="" style="triangle;whiteSpace=wrap;html=1;rotation=-90;fillColor=#f8cecc;strokeColor=#b85450;" parent="1" vertex="1">
          <mxGeometry x="297" y="550" width="105" height="140" as="geometry" />
        </mxCell>
        <mxCell id="j58Qa-B2XjDs2JEi8ESv-3" value="" style="triangle;whiteSpace=wrap;html=1;rotation=-90;fillColor=#e51400;strokeColor=#B20000;fontColor=#ffffff;" parent="1" vertex="1">
          <mxGeometry x="442" y="550" width="105" height="140" as="geometry" />
        </mxCell>
        <mxCell id="j58Qa-B2XjDs2JEi8ESv-4" value="DAD Triad" style="text;html=1;align=center;verticalAlign=middle;resizable=0;points=[];autosize=1;strokeColor=none;fillColor=none;fontStyle=1" parent="1" vertex="1">
          <mxGeometry x="382.5" y="585" width="80" height="30" as="geometry" />
        </mxCell>
        <mxCell id="j58Qa-B2XjDs2JEi8ESv-5" value="Alteration" style="text;html=1;align=center;verticalAlign=middle;resizable=0;points=[];autosize=1;strokeColor=none;fillColor=none;fontStyle=1" parent="1" vertex="1">
          <mxGeometry x="310" y="630" width="80" height="30" as="geometry" />
        </mxCell>
        <mxCell id="j58Qa-B2XjDs2JEi8ESv-6" value="Deniability" style="text;html=1;align=center;verticalAlign=middle;resizable=0;points=[];autosize=1;strokeColor=none;fillColor=none;fontStyle=1;fontColor=#FFFFFF;" parent="1" vertex="1">
          <mxGeometry x="454.5" y="630" width="80" height="30" as="geometry" />
        </mxCell>
        <mxCell id="j58Qa-B2XjDs2JEi8ESv-7" value="Disclosure" style="text;html=1;align=center;verticalAlign=middle;resizable=0;points=[];autosize=1;strokeColor=none;fillColor=none;fontStyle=1" parent="1" vertex="1">
          <mxGeometry x="382.5" y="520" width="80" height="30" as="geometry" />
        </mxCell>
      </root>
    </mxGraphModel>
  </diagram>
</mxfile>
